<?xml version="1.0" encoding="iso-8859-1"?>
<!-- Generator: Adobe Illustrator 21.0.0, SVG Export Plug-In . SVG Version: 6.00 Build 0)  -->
<svg xmlns="http://www.w3.org/2000/svg" xmlns:xlink="http://www.w3.org/1999/xlink" version="1.1" id="Capa_1" x="0px" y="0px" viewBox="0 0 510 510" style="enable-background:new 0 0 510 510;" xml:space="preserve" width="512" height="512">
<g>
	<path style="fill:#B32425;" d="M255,502.5c92.236,0,136.114-54.548,148.909-72.34c-16.697,3.267-32.557,1.108-47.967-3.482   c-24.683,15.355-55.97,28.326-100.942,28.326c-44.972,0-76.259-12.971-100.942-28.326c-15.41,4.589-31.27,6.748-47.967,3.482   C118.886,447.952,162.764,502.5,255,502.5z"/>
	<path style="fill:#9E1219;" d="M255,502.5c92.236,0,136.114-54.548,148.909-72.34c-8.929,1.747-17.617,1.931-26.127,1.033   C353.128,452.276,315.184,475.5,255,475.5c-60.184,0-98.128-23.224-122.782-44.307c-8.51,0.898-17.198,0.714-26.127-1.033   C118.886,447.952,162.764,502.5,255,502.5z"/>
	<path style="fill:#45BF7F;" d="M426.675,140.311c23.136-59.402,75.742-59.403,75.742-59.403v94.833   c-3.799,43.53-46.652,56.207-46.652,56.207l-0.411-1.295C451.841,180.987,426.675,140.311,426.675,140.311z"/>
	<path style="fill:#FFDF65;" d="M255,332.415c0,0,36.625,0.191,64.965,20.237c35.418,25.054,116.362,5.215,133.386-84.322   c12.35-64.958-26.675-128.018-26.675-128.018s14.616-65.686-47.722-72.326c-72.421-7.714-103.94,97.562-103.94,97.562h-0.03   c-6.177-2.471-12.917-3.844-19.983-3.844c-7.066,0-13.806,1.373-19.983,3.844h-0.031c0,0-31.519-105.277-103.94-97.562   c-62.338,6.64-47.722,72.326-47.722,72.326s-39.026,63.06-26.675,128.018c17.024,89.537,97.967,109.376,133.386,84.322   C218.374,332.606,255,332.415,255,332.415z"/>
	<g>
		<g>
			<path style="fill:#F6C134;" d="M255,305.415c0,0,36.625,0.191,64.965,20.237c35.418,25.054,116.362,5.215,133.386-84.322     c0.832-4.376,1.424-8.742,1.817-13.082c1.098,12.901,0.775,26.448-1.817,40.082c-17.024,89.537-97.967,109.376-133.386,84.322     C291.625,332.606,255,332.415,255,332.415s-36.626,0.191-64.965,20.237c-35.418,25.054-116.362,5.215-133.386-84.322     c-2.592-13.634-2.915-27.181-1.817-40.082c0.393,4.34,0.985,8.706,1.817,13.082c17.024,89.537,97.967,109.376,133.386,84.322     C218.374,305.606,255,305.415,255,305.415z"/>
		</g>
	</g>
	<path style="fill:#FFA035;" d="M255,161.703c7.07,0,13.814,1.375,19.994,3.849l0.019-0.004c0,0,20.884-69.743,67.708-91.536v-0.003   c0,0-19.214-29.996-60.474-29.935c0,0-14.283-19.781-27.247-36.573c-12.965,16.793-27.247,36.573-27.247,36.573   c-41.26-0.06-60.474,29.935-60.474,29.935v0.003c46.823,21.793,67.707,91.536,67.707,91.536l0.019,0.004   C241.186,163.078,247.93,161.703,255,161.703z"/>
	<path style="fill:#45BF7F;" d="M83.325,140.311C60.188,80.909,7.582,80.908,7.582,80.908v94.833   c3.799,43.53,46.652,56.207,46.652,56.207l0.411-1.295C58.159,180.987,83.325,140.311,83.325,140.311z"/>
	<path style="fill:#00AA61;" d="M7.582,148.741v27c3.799,43.53,46.652,56.207,46.652,56.207l0.411-1.295   c0.739-10.447,2.438-20.494,4.658-29.851C41.204,194.202,11.273,178.856,7.582,148.741z"/>
	<path style="fill:#F2433B;" d="M203.921,198.834c4.855-15.173,16.354-27.389,31.096-33.286h-0.031   c0,0-31.519-105.277-103.94-97.562c-62.338,6.64-47.722,72.326-47.722,72.326s35.571-21.982,61.206,0   C144.531,140.311,181.559,170.154,203.921,198.834L203.921,198.834z"/>
	<path style="fill:#D72E2E;" d="M153.703,117.341c-27.19-23.315-63.751-5.158-71.505-0.856c-1.243,13.165,1.127,23.827,1.127,23.827   s35.571-21.982,61.206,0c0,0,37.028,29.843,59.39,58.522l0,0c2.577-8.054,7.04-15.261,12.852-21.145   C190.111,146.685,153.703,117.341,153.703,117.341z"/>
	<path style="fill:#00AA61;" d="M502.418,148.741v27c-3.799,43.53-46.652,56.207-46.652,56.207l-0.411-1.295   c-0.739-10.447-2.439-20.494-4.658-29.851C468.796,194.202,498.727,178.856,502.418,148.741z"/>
	<path style="fill:#F2433B;" d="M306.079,198.834c-4.855-15.173-16.354-27.389-31.096-33.286h0.03c0,0,31.519-105.277,103.94-97.562   c62.338,6.64,47.722,72.326,47.722,72.326s-35.571-21.982-61.207,0C365.469,140.311,328.441,170.154,306.079,198.834   L306.079,198.834z"/>
	<path style="fill:#D72E2E;" d="M356.297,117.341c27.19-23.315,63.751-5.158,71.505-0.856c1.243,13.165-1.126,23.827-1.126,23.827   s-35.571-21.982-61.206,0c0,0-37.028,29.843-59.39,58.522l0,0c-2.577-8.054-7.04-15.261-12.853-21.145   C319.889,146.685,356.297,117.341,356.297,117.341z"/>
	<path style="fill:#E0E0E0;" d="M201.399,215.016c0-5.643,0.888-11.078,2.522-16.183c-22.362-28.68-59.39-58.522-59.39-58.522   s-47.237,76.46-41.693,108.689c5.543,32.229,36.304,53.886,68.707,48.372c23.593-4.014,41.537-21.332,47.419-42.89   C208.174,244.73,201.399,230.66,201.399,215.016z"/>
	<g>
		<path style="fill:#C4C4C4;" d="M210.805,245.161c-8.768,12.907-22.603,22.378-39.26,25.212    c-30.213,5.141-58.989-13.345-67.236-41.993c-1.774,7.813-2.453,14.912-1.472,20.62c5.543,32.229,36.305,53.886,68.707,48.372    c23.593-4.014,41.537-21.332,47.419-42.89C215.893,251.707,213.162,248.572,210.805,245.161z"/>
	</g>
	<ellipse style="fill:#FFDF65;" cx="255" cy="215.016" rx="53.601" ry="53.313"/>
	<path style="fill:#F78819;" d="M255,134.703c-10.591,0-20.455,3.067-28.768,8.34c5.918,13.04,8.755,22.505,8.755,22.505   l0.019,0.004c6.18-2.474,12.924-3.849,19.994-3.849c7.07,0,13.814,1.375,19.994,3.849l0.019-0.004c0,0,2.837-9.464,8.755-22.505   C275.455,137.771,265.59,134.703,255,134.703z"/>
	<path style="fill:#F6C134;" d="M255,268.33c29.603,0,53.6-23.869,53.6-53.313c0-4.665-0.606-9.188-1.738-13.5   c-6.011,22.906-26.95,39.813-51.863,39.813c-24.913,0-45.852-16.907-51.863-39.813c-1.132,4.312-1.738,8.835-1.738,13.5   C201.399,244.46,225.397,268.33,255,268.33z"/>
	<ellipse style="fill:#525256;" cx="179.001" cy="226.499" rx="23.252" ry="23.128"/>
	<path style="fill:#454549;" d="M179.001,231.627c-9.632,0-17.897-5.826-21.426-14.128c-1.176,2.766-1.826,5.808-1.826,9   c0,12.773,10.41,23.128,23.252,23.128c12.842,0,23.252-10.355,23.252-23.128c0-3.192-0.65-6.234-1.826-9   C196.898,225.801,188.633,231.627,179.001,231.627z"/>
	<g>
		<path style="fill:#FFA035;" d="M255,332.415c0,0,36.625,0.191,64.965,20.237c0,0,0-84.322-64.965-84.322    s-64.965,84.322-64.965,84.322C218.374,332.606,255,332.415,255,332.415z"/>
	</g>
	<path style="fill:#F78819;" d="M255,332.415c0,0,36.625,0.191,64.965,20.237c0,0-0.004-13.536-4.181-29.758   C288.027,305.602,255,305.415,255,305.415s-33.027,0.187-60.784,17.478c-4.177,16.223-4.181,29.758-4.181,29.758   C218.374,332.606,255,332.415,255,332.415z"/>
	<path style="fill:#E0E0E0;" d="M308.601,215.016c0-5.643-0.888-11.078-2.522-16.183c22.362-28.68,59.39-58.522,59.39-58.522   s47.237,76.46,41.693,108.689c-5.543,32.229-36.305,53.886-68.707,48.372c-23.593-4.014-41.537-21.332-47.419-42.89   C301.826,244.73,308.601,230.66,308.601,215.016z"/>
	<g>
		<path style="fill:#C4C4C4;" d="M299.195,245.161c8.768,12.907,22.603,22.378,39.26,25.212    c30.213,5.141,58.989-13.345,67.236-41.993c1.774,7.813,2.453,14.912,1.472,20.62c-5.543,32.229-36.305,53.886-68.707,48.372    c-23.593-4.014-41.537-21.332-47.419-42.89C294.107,251.707,296.838,248.572,299.195,245.161z"/>
	</g>
	<path style="fill:#F2433B;" d="M255,393.504c63.703,0,118.419,76.034,194.812,13.666c70.607-57.644,5.954-175.223,5.954-175.223   h-0.322c0.741,11.78,0.252,24.046-2.094,36.382c-17.024,89.537-97.967,109.376-133.386,84.322   C291.625,332.606,255,332.415,255,332.415s-36.626,0.191-64.965,20.237c-35.418,25.054-116.362,5.215-133.386-84.322   c-2.345-12.336-2.835-24.602-2.094-36.382h-0.322c0,0-64.653,117.579,5.954,175.223C136.581,469.538,191.297,393.504,255,393.504z"/>
	<path style="fill:#D72E2E;" d="M255,393.504c63.703,0,118.419,76.034,194.812,13.666c29.14-23.79,35.232-57.785,32.349-89.513   c-2.354,23.023-11.396,45.407-32.349,62.513C373.419,442.538,318.703,366.504,255,366.504s-118.419,76.034-194.812,13.666   c-20.953-17.106-29.994-39.49-32.348-62.513c-2.884,31.728,3.209,65.724,32.348,89.513   C136.581,469.538,191.297,393.504,255,393.504z"/>
	<path style="fill:#525256;" d="M255,455.004c44.972,0,76.259-12.971,100.942-28.326c0.516,0.154,1.033,0.297,1.549,0.445   c-35.487-10.169-67.108-33.619-102.491-33.619c-35.384,0-67.005,23.45-102.492,33.619c0.517-0.148,1.034-0.291,1.549-0.445   C178.741,442.033,210.028,455.004,255,455.004z"/>
	<path style="fill:#454549;" d="M255,455.004c44.972,0,76.259-12.971,100.942-28.326c0.516,0.154,1.033,0.297,1.549,0.445   c-10.962-3.141-21.692-7.55-32.33-12.144c-20.199,7.772-41.555,13.024-70.161,13.024c-28.606,0-49.962-5.253-70.161-13.024   c-10.638,4.593-21.368,9.002-32.33,12.144c0.517-0.148,1.034-0.291,1.549-0.445C178.741,442.033,210.028,455.004,255,455.004z"/>
	<ellipse style="fill:#525256;" cx="331.004" cy="226.499" rx="23.252" ry="23.128"/>
	<path style="fill:#454549;" d="M331.004,231.627c9.633,0,17.897-5.826,21.426-14.128c1.176,2.766,1.826,5.808,1.826,9   c0,12.773-10.41,23.128-23.252,23.128c-12.842,0-23.252-10.355-23.252-23.128c0-3.192,0.65-6.234,1.827-9   C313.108,225.801,321.372,231.627,331.004,231.627z"/>
	<path d="M507.722,75.604c-1.407-1.406-3.315-2.196-5.304-2.196c-0.604,0-15.003,0.093-32.346,8.119   c-10.699,4.952-24.002,13.697-35.478,28.953c-1.418-8.813-4.471-18.268-10.495-26.655c-9.586-13.346-24.508-21.184-44.353-23.298   c-11.95-1.27-23.525,0.227-34.571,4.379c-7.664-9.014-26.849-26.95-59.051-28.257c-4.528-6.222-15.292-20.914-25.189-33.732   C259.517,1.077,257.324,0,255,0c-2.324,0-4.517,1.077-5.937,2.917c-9.897,12.818-20.66,27.511-25.189,33.732   c-32.103,1.306-51.274,19.139-58.984,28.178c-11.025-4.136-22.591-5.585-34.638-4.3c-19.844,2.114-34.766,9.952-44.352,23.298   c-6.024,8.387-9.077,17.842-10.495,26.655c-11.477-15.256-24.78-24.001-35.479-28.953c-17.343-8.026-31.741-8.119-32.345-8.119   c-1.989,0-3.897,0.79-5.303,2.196c-1.407,1.407-2.197,3.314-2.197,5.304v94.833c0,0.218,0.009,0.436,0.028,0.652   c3.154,36.132,29.843,53.071,43.732,59.501c-5.388,11.263-15.125,33.951-20.462,60.574c-10.181,50.784,0.907,91.074,32.065,116.512   c16.167,13.198,31.563,20.546,46.275,23.902C122.865,465.262,169.741,510,255,510c85.257,0,132.132-44.735,153.278-73.114   c14.713-3.356,30.111-10.707,46.277-23.905c31.158-25.438,42.246-65.728,32.065-116.512c-5.338-26.624-15.075-49.311-20.463-60.575   c13.888-6.43,40.578-23.369,43.732-59.501c0.019-0.217,0.028-0.435,0.028-0.652V80.908   C509.918,78.919,509.128,77.012,507.722,75.604z M378.159,75.443c15.38,1.638,26.723,7.381,33.712,17.069   c8.366,11.598,9.199,26.727,8.646,36.448c-3.68-1.512-8.173-3.071-13.17-4.205c-18.123-4.119-34.202-0.767-46.527,9.676   c-0.018,0.015-0.039,0.026-0.057,0.041c-1.373,1.106-30.451,24.648-52.784,50.307c-5.613-9.705-13.827-17.736-23.704-23.126   C292.118,140.222,322.379,69.483,378.159,75.443z M62.041,232.419c0.001-0.018,0-0.035,0.001-0.053   c2.674-42.293,22.201-78.609,26.726-86.513c5.904-3.154,27.934-13.502,45.74-3.436c-11.716,19.833-44.165,78.179-39.061,107.855   c5.583,32.46,33.994,55.457,66.028,55.455c3.735-0.001,7.525-0.313,11.329-0.961c8.639-1.47,16.745-4.606,23.961-9.069   c-2.065,3.746-3.941,7.772-5.607,12.097c-6.422,16.67-8.061,33.156-8.479,40.669c-14.871,8.617-36.942,8.978-57.457,0.696   c-31.367-12.66-53.675-42.633-61.204-82.23C61.949,256.052,61.284,244.44,62.041,232.419z M255,169.203   c25.42,0,46.101,20.552,46.101,45.814S280.42,260.83,255,260.83c-25.42,0-46.101-20.552-46.101-45.814S229.58,169.203,255,169.203z    M331.005,210.871c8.685,0,15.752,7.011,15.752,15.628c0,8.617-7.066,15.628-15.752,15.628c-8.687,0-15.753-7.011-15.753-15.628   C315.252,217.882,322.318,210.871,331.005,210.871z M194.753,226.499c0,8.617-7.066,15.628-15.752,15.628   c-8.686,0-15.753-7.011-15.753-15.628c0-8.617,7.066-15.628,15.753-15.628C187.687,210.871,194.753,217.882,194.753,226.499z    M195.615,200.746c-4.795-3.079-10.496-4.875-16.614-4.875c-16.957,0-30.753,13.739-30.753,30.628   c0,16.889,13.795,30.628,30.753,30.628c9.444,0,17.903-4.265,23.549-10.959c2.253,3.743,4.902,7.221,7.884,10.388   c-6.324,17.357-21.669,30.279-40.147,33.424c-28.286,4.806-55.223-14.142-60.057-42.25c-3.725-21.654,21.769-71.214,36.228-96.032   c10.987,9.377,33.314,29.254,49.211,48.819C195.65,200.592,195.633,200.669,195.615,200.746z M205.154,313.188   c9.549-24.789,26.319-37.357,49.846-37.357c23.415,0,40.142,12.454,49.714,37.017c3.601,9.24,5.528,18.593,6.561,25.912   c-26.844-13.499-54.88-13.836-56.314-13.844c-1.368,0.008-29.403,0.345-56.249,13.85   C199.728,331.555,201.623,322.354,205.154,313.188z M299.566,256.556c2.983-3.168,5.633-6.647,7.886-10.392   c5.646,6.696,14.107,10.963,23.553,10.963c16.957,0,30.752-13.739,30.752-30.628c0-16.889-13.795-30.628-30.752-30.628   c-6.12,0-11.823,1.797-16.619,4.878c-0.019-0.077-0.035-0.155-0.054-0.233c15.885-19.55,38.191-39.412,49.186-48.798   c4.403,7.595,11.451,20.212,18.171,34.214c13.63,28.399,20.052,50.346,18.082,61.797c-4.835,28.109-31.781,47.057-60.058,42.25   C321.236,286.836,305.89,273.913,299.566,256.556z M98.129,92.513c6.989-9.688,18.331-15.432,33.712-17.069   c21.46-2.288,41.352,6.422,59.123,25.886c2.793,3.058,7.537,3.273,10.596,0.48c3.059-2.793,3.274-7.536,0.481-10.596   c-7.368-8.069-15.099-14.576-23.162-19.518c7.603-7.855,23.51-20.123,48.747-20.123c0.042,0,0.082,0.002,0.125,0   c2.408,0,4.671-1.156,6.081-3.109c0.12-0.167,10.314-14.275,21.167-28.61c10.851,14.333,21.046,28.443,21.166,28.61   c1.41,1.953,3.673,3.109,6.081,3.109c0.056-0.001,0.082,0,0.125,0c25.313,0,41.244,12.345,48.814,20.188   c-13.652,8.323-26.3,21.032-37.597,37.948c-12.116,18.143-19.704,36.567-23.297,46.423c-4.889-1.258-10.013-1.929-15.292-1.929   c-5.279,0-10.404,0.671-15.294,1.93c-3.142-8.615-9.341-23.785-18.95-39.601c-2.151-3.54-6.764-4.664-10.304-2.516   c-3.54,2.151-4.667,6.765-2.516,10.305c9.055,14.904,14.933,29.444,17.8,37.327c-9.882,5.389-18.099,13.424-23.715,23.132   c-22.334-25.66-51.412-49.201-52.784-50.307c-0.018-0.015-0.039-0.027-0.057-0.041c-12.327-10.441-28.404-13.793-46.527-9.676   c-4.997,1.134-9.49,2.693-13.17,4.205C88.931,119.236,89.764,104.109,98.129,92.513z M15.082,175.405V89.208   c13.899,2.404,43.505,12.035,59.899,50.521c-5.753,10.207-22.247,42.262-26.966,81.544   C36.658,215.565,17.554,202.106,15.082,175.405z M255,495c-68.117,0-109.555-30.705-132.06-55.842   c10.263-0.097,20.184-1.844,29.796-4.521c13.844,8.354,27.597,14.639,41.949,19.122c0.745,0.232,1.497,0.343,2.238,0.343   c3.193,0,6.154-2.057,7.157-5.267c1.234-3.953-0.97-8.159-4.923-9.395c-9.29-2.901-18.324-6.644-27.329-11.291   c7.212-2.827,14.249-5.927,21.126-8.957c21.224-9.354,41.27-18.188,62.046-18.188c20.775,0,40.822,8.834,62.046,18.188   c6.892,3.037,13.944,6.144,21.172,8.976c-18.886,9.764-45.724,19.337-83.218,19.337c-9.543,0-18.867-0.616-27.715-1.832   c-4.104-0.555-7.887,2.306-8.451,6.41c-0.564,4.103,2.306,7.887,6.41,8.451c9.521,1.308,19.533,1.971,29.756,1.971   c38.203,0,70.794-8.866,102.289-27.86c9.605,2.674,19.52,4.412,29.777,4.508C364.562,464.291,323.124,495,255,495z    M445.068,401.361c-46.026,37.573-82.917,21.315-121.974,4.104c-21.71-9.567-44.16-19.461-68.095-19.461   c-23.935,0-46.385,9.894-68.095,19.461c-39.059,17.211-75.951,33.469-121.974-4.104C38.04,379.406,28.985,345.22,38.02,299.749   c2.628-13.227,6.489-25.558,10.288-35.806c0.286,1.947,0.61,3.877,0.973,5.788c8.501,44.71,34.134,78.73,70.326,93.339   c26.892,10.853,55.444,9.249,74.58-4.174c0.027-0.018,0.054-0.037,0.081-0.055c0.032-0.022,0.065-0.043,0.097-0.066   c25.983-18.38,60.338-18.857,60.585-18.86c0.344,0.003,34.698,0.48,60.683,18.86c0.029,0.021,0.06,0.039,0.09,0.06   c0.038,0.026,0.077,0.052,0.115,0.077c24.973,17.495,65.355,14.271,96.137-7.713c3.37-2.408,4.151-7.092,1.744-10.463   c-2.407-3.37-7.092-4.153-10.463-1.744c-13.217,9.44-28.234,14.972-43.429,15.996c-12.403,0.836-23.779-1.48-32.507-6.535   c-0.419-7.518-2.059-23.997-8.478-40.659c-1.666-4.325-3.542-8.352-5.607-12.097c7.216,4.462,15.322,7.599,23.962,9.069   c3.806,0.647,7.591,0.961,11.328,0.961c32.032-0.001,60.445-22.997,66.028-55.455c5.104-29.676-27.345-88.022-39.061-107.856   c17.81-10.069,39.85,0.289,45.737,3.434c4.896,8.565,27.36,50.479,27.01,97.361c-0.004,0.468-0.007,0.937-0.016,1.403   c-0.011,0.642-0.026,1.284-0.045,1.927c-0.035,1.096-0.077,2.189-0.137,3.276c-0.019,0.352-0.046,0.705-0.068,1.058   c-0.061,0.967-0.13,1.931-0.211,2.891c-0.03,0.352-0.058,0.704-0.091,1.057c-0.114,1.239-0.241,2.473-0.389,3.697   c-0.02,0.168-0.045,0.337-0.066,0.505c-0.136,1.094-0.288,2.18-0.451,3.261c-0.049,0.323-0.098,0.646-0.149,0.969   c-0.196,1.232-0.403,2.459-0.634,3.674c-3.921,20.622-11.563,38.365-22.715,52.736c-2.539,3.272-1.944,7.983,1.328,10.523   c0.309,0.24,0.633,0.442,0.965,0.626c0.06,0.033,0.119,0.069,0.18,0.1c0.321,0.167,0.649,0.308,0.984,0.425   c0.066,0.023,0.133,0.042,0.199,0.063c0.348,0.111,0.699,0.203,1.056,0.261c0.009,0.002,0.018,0.002,0.027,0.003   c0.351,0.056,0.704,0.079,1.057,0.085c0.042,0.001,0.083,0.01,0.125,0.01c0.035,0,0.071-0.005,0.106-0.006   c0.171-0.002,0.341-0.014,0.512-0.029c0.091-0.008,0.182-0.01,0.273-0.021c0.256-0.03,0.51-0.072,0.761-0.128   c0.043-0.01,0.084-0.025,0.126-0.035c0.211-0.051,0.421-0.11,0.628-0.179c0.092-0.031,0.182-0.07,0.274-0.104   c0.155-0.059,0.308-0.12,0.459-0.189c0.098-0.045,0.194-0.095,0.291-0.145c0.141-0.072,0.279-0.148,0.416-0.229   c0.095-0.057,0.189-0.115,0.281-0.176c0.135-0.089,0.266-0.184,0.396-0.282c0.086-0.065,0.172-0.129,0.256-0.198   c0.137-0.114,0.269-0.236,0.399-0.361c0.068-0.065,0.138-0.125,0.203-0.193c0.192-0.198,0.376-0.405,0.549-0.628   c3.155-4.066,6.059-8.358,8.709-12.869c7.951-13.533,13.615-29.031,16.891-46.26c0.035-0.184,0.065-0.371,0.1-0.556   c0.32-1.718,0.61-3.434,0.863-5.146C475.3,300.958,489.683,364.938,445.068,401.361z M494.918,175.405   c-2.469,26.667-21.528,40.124-32.883,45.843c-4.683-39.204-21.223-71.272-27.015-81.524c16.4-38.496,46.017-48.12,59.897-50.519   V175.405z"/>
</g>















</svg>
